<?xml version="1.0" encoding="UTF-8"?>
<svg id="Layer_2" data-name="Layer 2" xmlns="http://www.w3.org/2000/svg" viewBox="0 0 174.5 181.19">
  <defs>
    <style>
      .cls-1 {
        fill: #ffd313;
      }

      .cls-2 {
        fill: #fff;
      }

      .cls-3 {
        fill: #ff5800;
      }

      .cls-4 {
        fill: #0051ba;
      }
    </style>
  </defs>
  <g id="Layer_1-2" data-name="Layer 1">
    <g>
      <path d="M169.41,111.85c4,18.51,8.53,39.49-3.69,54.64-7.98,9.89-20.93,14.7-39.58,14.7-1.34,0-2.74-.02-4.15-.07-24.23-.85-41.5-13.07-49.94-35.33-.88-2.34-1.65-4.73-2.32-7.17v25.39c0,9.38-7.6,16.99-16.98,16.99H16.98c-9.38,0-16.98-7.61-16.98-16.99V16.98C0,7.6,7.6,0,16.98,0h35.77c9.38,0,16.98,7.6,16.98,16.98v26.42c1-3.69,2.23-7.26,3.73-10.67C80.03,17.8,94.71,0,127.31,0c18.62,0,31.54,4.88,39.48,14.94,12.29,15.56,7.26,36.73,2.82,55.4-1.76,7.38-3.42,14.37-3.92,20.24.53,6.51,2.15,14.01,3.72,21.27Z"/>
      <g>
        <rect class="cls-1" x="14.99" y="15" width="39.74" height="39.74" rx="1.99" ry="1.99"/>
        <rect class="cls-4" x="15.19" y="70.63" width="39.74" height="39.74" rx="1.99" ry="1.99"/>
        <rect class="cls-3" x="15.29" y="126.26" width="39.74" height="39.74" rx="1.99" ry="1.99"/>
        <path class="cls-2" d="M150.65,90.56c1.96-30.46,29.38-75.56-23.34-75.56-44.16,0-47.13,38.22-47.13,75.56,0,33.76,1.61,74.14,42.33,75.56,56.77,1.98,30.31-41.71,28.13-75.56Z"/>
      </g>
    </g>
  </g>
</svg>