<?xml version="1.0" encoding="UTF-8"?>
<svg id="Layer_2" data-name="Layer 2" xmlns="http://www.w3.org/2000/svg" viewBox="0 0 180.75 204.61">
  <defs>
    <style>
      .cls-1 {
        fill-rule: evenodd;
      }

      .cls-1, .cls-2 {
        fill: #fff;
      }

      .cls-3 {
        fill: #c62535;
      }

      .cls-4 {
        fill: #029347;
      }
    </style>
  </defs>
  <g id="Layer_1-2" data-name="Layer 1">
    <g>
      <path d="M180.02,36.77c-1.37,3.86-2.79,7.71-4.23,11.63l-6.31,17.21-.11-.07-39.69,109.18c-.06.32-.13.63-.2.95-1.56,6.37-5.55,10.99-11.85,13.76-6.25,2.74-12.37,5.62-18.86,8.68-2.51,1.18-5.03,2.38-7.59,3.56l-5.06,2.36c-3.14,1.47-6.87.11-8.33-3.02l-12.78-27.41v5.26c0,7.85-6.37,14.21-14.21,14.21H14.21c-7.84,0-14.21-6.36-14.21-14.21V26.58c0-7.85,6.37-14.21,14.21-14.21h36.59c7.84,0,14.21,6.36,14.21,14.21v119.32l37.89-104.2-.31-.04,6.5-17.69c1.39-3.78,2.72-7.45,4.11-11.1,1.4-3.68,4.37-6.73,7.95-8.15C128.81,1.71,135.86.15,142.7.01c.25-.01.5-.01.75-.01,11.08,0,20.72,5.13,28.67,15.23,2.02,2.57,3.66,5.25,5.12,7.6.45.73.89,1.47,1.35,2.18,2.25,3.55,2.78,7.95,1.43,11.76Z"/>
      <g>
        <path class="cls-1" d="M78.8,143.56c11.97-32.91,23.86-65.63,35.82-98.51,16.52.26,31.28,5.62,44.1,16.05-11.92,32.79-23.79,65.45-35.75,98.34-13.38-8.87-28.12-14.2-44.17-15.88Z"/>
        <path class="cls-1" d="M118.96,32.4c1.83-4.97,3.54-9.69,5.32-14.39.2-.54.72-1.14,1.23-1.34,5.6-2.22,11.35-3.77,17.44-3.9,8.66-.18,14.82,4.29,19.85,10.69,2.16,2.75,3.9,5.84,5.78,8.81.25.39.42,1.04.27,1.45-1.72,4.84-3.51,9.66-5.33,14.65-13.55-8.98-28.26-14.27-44.56-15.97Z"/>
        <path class="cls-1" d="M86.16,191.85c-.35-.74-.59-1.26-.83-1.79-4.19-8.99-8.38-17.98-12.58-26.97-.61-1.31.1-5.63,1.17-6.54.33-.28.96-.32,1.45-.3,15.63.48,29.59,5.56,41.9,15.2.85.66.96,1.23.7,2.3-.71,2.88-2.34,4.52-5.12,5.74-8.89,3.9-17.64,8.14-26.7,12.36Z"/>
        <rect class="cls-2" x="11.84" y="25.13" width="41.32" height="41.32" rx="2.37" ry="2.37"/>
        <rect class="cls-4" x="12.05" y="82.97" width="41.32" height="41.32" rx="2.37" ry="2.37"/>
        <rect class="cls-3" x="12.15" y="140.82" width="41.32" height="41.32" rx="2.37" ry="2.37"/>
      </g>
    </g>
  </g>
</svg>