<?xml version="1.0" encoding="UTF-8"?>
<svg id="Layer_2" data-name="Layer 2" xmlns="http://www.w3.org/2000/svg" viewBox="0 0 216.37 221.67">
  <defs>
    <style>
      .cls-1 {
        fill: #c62535;
      }

      .cls-2 {
        fill: #029347;
      }

      .cls-3 {
        fill: #ffd313;
      }

      .cls-4 {
        fill: #fff;
      }

      .cls-5 {
        fill: #ff5800;
      }

      .cls-6 {
        fill: #0051ba;
      }
    </style>
  </defs>
  <g id="Layer_1-2" data-name="Layer 1">
    <g>
      <g>
        <polygon points="76.93 68.14 76.89 68.17 76.92 68.14 76.93 68.14"/>
        <polygon points="76.93 68.14 76.89 68.17 76.92 68.14 76.93 68.14"/>
        <polygon points="76.93 68.14 76.89 68.17 76.92 68.14 76.93 68.14"/>
        <polygon points="52.44 146.89 52.37 146.95 50.41 144.99 50.48 144.92 52.44 146.89"/>
        <polygon points="52.44 146.89 52.37 146.95 50.41 144.99 50.48 144.92 52.44 146.89"/>
        <polygon points="52.44 146.89 52.37 146.95 50.41 144.99 50.48 144.92 52.44 146.89"/>
        <rect x="54.93" y="180.74" width=".05" height="7.05" transform="translate(-114.2 92.83) rotate(-45)"/>
        <polygon points="52.44 146.89 52.37 146.95 50.41 144.99 50.48 144.92 52.44 146.89"/>
        <rect x="54.93" y="180.74" width=".05" height="7.05" transform="translate(-114.2 92.83) rotate(-45)"/>
        <rect x="54.93" y="180.74" width=".05" height="7.05" transform="translate(-114.2 92.83) rotate(-45)"/>
        <path d="M206.55,113.47c.54-7.15,2.49-15.34,4.55-24,4.8-20.14,9.75-40.98-1.84-55.65-7.44-9.41-20.01-13.98-38.44-13.98-26.08,0-44.08,10.85-53.5,32.24-.39.87-.75,1.76-1.09,2.65l-21.85-21.85-.03.03-17.45-17.45-.06.07L62.68,1.37c-1.83-1.83-4.79-1.83-6.62,0l-14.14,14.14-8.91,8.91L1.42,56.02c-1.83,1.83-1.83,4.79,0,6.62l23.05,23.05.07-.06,17.45,17.45.03-.03,4.42,4.42c1.83,1.83,1.83,4.79,0,6.62l-13.47,13.47-8.54,8.54L1.37,159.13c-1.83,1.83-1.83,4.79,0,6.62l23.05,23.06.07-.07,17.45,17.45.03-.04,14.14,14.14c1.83,1.83,4.79,1.83,6.62,0l14.14-14.14,8.91-8.9,8.54-8.54,20.24-20.24c.41,1.3.86,2.58,1.34,3.84,8.42,22.23,25,33.94,49.26,34.79,1.48.05,2.95.08,4.36.08,18.49,0,31.12-4.51,38.6-13.78,11.51-14.26,7.04-34.91,2.73-54.88-1.83-8.47-3.72-17.22-4.29-25.04ZM76.88,68.18l.03-.04h0s-.04.04-.04.04Z"/>
      </g>
      <g>
        <rect class="cls-2" x="14.6" y="50.51" width="17.63" height="17.63" transform="translate(-35.09 33.93) rotate(-45)"/>
        <rect class="cls-3" x="32.05" y="33.06" width="17.63" height="17.63" transform="translate(-17.64 41.16) rotate(-45)"/>
        <rect class="cls-5" x="49.5" y="15.61" width="17.63" height="17.63" transform="translate(-.19 48.39) rotate(-45)"/>
        <rect class="cls-6" x="32.11" y="67.9" width="17.63" height="17.63" transform="translate(-42.26 51.41) rotate(-45)"/>
        <rect class="cls-4" x="49.57" y="50.45" width="17.63" height="17.63" transform="translate(-24.8 58.64) rotate(-45)"/>
        <rect class="cls-6" x="67.02" y="33" width="17.63" height="17.63" transform="translate(-7.35 65.87) rotate(-45)"/>
        <rect class="cls-6" x="49.6" y="85.32" width="17.63" height="17.63" transform="translate(-49.45 68.87) rotate(-45)"/>
        <rect class="cls-2" x="67.05" y="67.86" width="17.63" height="17.63" transform="translate(-32 76.1) rotate(-45)"/>
        <rect class="cls-1" x="84.5" y="50.41" width="17.63" height="17.63" transform="translate(-14.55 83.33) rotate(-45)"/>
        <rect class="cls-4" x="14.55" y="153.63" width="17.63" height="17.63" transform="translate(-108.02 64.1) rotate(-45)"/>
        <rect class="cls-6" x="32" y="136.18" width="17.63" height="17.63" transform="translate(-90.57 71.33) rotate(-45)"/>
        <rect class="cls-1" x="49.45" y="118.73" width="17.63" height="17.63" transform="translate(-73.12 78.56) rotate(-45)"/>
        <rect class="cls-4" x="32.07" y="171.01" width="17.63" height="17.63" transform="translate(-115.18 81.58) rotate(-45)"/>
        <rect class="cls-3" x="49.52" y="153.56" width="17.63" height="17.63" transform="translate(-97.73 88.81) rotate(-45)"/>
        <rect class="cls-1" x="66.97" y="136.11" width="17.63" height="17.63" transform="translate(-80.28 96.03) rotate(-45)"/>
        <rect class="cls-2" x="49.55" y="188.43" width="17.63" height="17.63" transform="translate(-122.38 99.04) rotate(-45)"/>
        <rect class="cls-5" x="67" y="170.98" width="17.63" height="17.63" transform="translate(-104.93 106.27) rotate(-45)"/>
        <rect class="cls-4" x="84.45" y="153.53" width="17.63" height="17.63" transform="translate(-87.48 113.5) rotate(-45)"/>
        <path class="cls-4" d="M195.64,113.47c2.17-33.78,32.58-83.8-25.88-83.8-48.98,0-52.27,42.39-52.27,83.8,0,37.45,1.78,82.23,46.95,83.8,62.96,2.2,33.62-46.26,31.2-83.8Z"/>
      </g>
    </g>
  </g>
</svg>