<?xml version="1.0" encoding="UTF-8"?>
<svg id="Layer_2" data-name="Layer 2" xmlns="http://www.w3.org/2000/svg" viewBox="0 0 168.94 190.3">
  <defs>
    <style>
      .cls-1, .cls-2 {
        fill-rule: evenodd;
      }

      .cls-1, .cls-3 {
        fill: #fff;
      }

      .cls-4 {
        fill: #c62535;
      }

      .cls-5 {
        fill: #029347;
      }

      .cls-6 {
        fill: #ffd313;
      }

      .cls-7 {
        fill: #ff5800;
      }

      .cls-8 {
        fill: #0051ba;
      }
    </style>
  </defs>
  <g id="Layer_1-2" data-name="Layer 1">
    <g>
      <path class="cls-2" d="M168.93,147.46c-.15,5.38-.12,10.96-.09,16.35.01,2.23.02,4.46.02,6.68v12.38c0,6.54-7.84,9.88-12.56,5.34l-6.56-6.31c-1.2-1.15-2.33-2.28-3.45-3.37-2.21-2.18-4.3-4.24-6.38-6.04-4.43-3.85-9.12-7.68-13.66-11.38l-2.22-1.81c-.35-.29-1.29-1.05-4-1.05h-.12c-4.37.04-8.86.16-13.21.28-4.43.11-9.01.24-13.57.28-1.97.02-3.94.02-5.92.02-2.95,0-5.91-.02-8.87-.03-2.92-.02-5.83-.03-8.75-.03-3.49,0-6.4.02-9.17.07h-.47c-7.44,0-14.27-2.81-19.73-8.13-8.28-8.06-16.58-16.33-24.61-24.33-3.24-3.23-6.48-6.46-9.72-9.68-5.57-5.52-7.32-13.25-4.7-20.64,2.56-7.23,8.72-12,16.47-12.77.63-.06,1.28-.09,1.92-.09.12,0,.24,0,.37,0,4.15.08,7.55-3.26,7.55-7.41v-1.41h-.05v-30.21h-.11V7.41c0-4.09,3.32-7.41,7.41-7.41h89.75c4.09,0,7.41,3.32,7.41,7.41v22.8h.11v30.21h.05v39.14c0,2,.8,3.91,2.23,5.31,5.27,5.14,10.6,10.27,15.8,15.27,2.69,2.59,5.38,5.18,8.07,7.77.52.5,1.02,1.02,1.52,1.53.64.65,1.3,1.33,1.72,1.65,5.16,3.97,7.68,9.48,7.5,16.37Z"/>
      <g>
        <path class="cls-1" d="M103.18,122.89v-2.32c0-.47-.38-.85-.85-.85-5.39,0-10.69,0-15.98,0-7.39,0-14.79.03-22.18-.06-3.98-.05-7.06-2.78-7.85-6.67-.72-3.54,1.17-7.36,4.64-8.87,1.3-.57,2.86-.79,4.3-.79,15.75-.05,31.5,0,47.25-.06,3.52-.01,5.93,1.63,8.35,4.01,9.75,9.62,19.66,19.06,29.52,28.57,1.39,1.34,2.66,2.82,4.18,3.99,2.4,1.85,3.19,4.08,3.1,7.12-.21,7.77-.07,15.56-.07,23.34h0c0,1.22-1.48,1.84-2.35.98-2.72-2.67-5.23-5.19-7.9-7.51-5.28-4.59-10.73-8.98-16.15-13.41-3.29-2.69-7.25-3.63-11.35-3.59-8.93.07-17.85.48-26.78.55-10.93.09-21.86-.14-32.79.03-4.88.08-8.88-1.74-12.15-4.92-11.51-11.21-22.85-22.61-34.26-33.94-2.55-2.53-3.18-5.58-2.01-8.86,1.12-3.17,3.58-4.97,6.95-5.31,2.64-.26,4.83.76,6.75,2.55,7.2,6.69,14.2,13.6,21.55,20.13,1.94,1.72,3.76,3.59,5.74,5.27.49.42,1.22.77,1.84.78,15.95.03,31.89.02,47.84,0,.18,0,.36-.08.67-.15Z"/>
        <rect class="cls-6" x="38.65" y="11.09" width="21.58" height="21.58" rx="1.59" ry="1.59"/>
        <rect class="cls-3" x="68.86" y="11.09" width="21.58" height="21.58" rx="1.59" ry="1.59"/>
        <rect class="cls-5" x="99.07" y="11.09" width="21.58" height="21.58" rx="1.59" ry="1.59"/>
        <rect class="cls-8" x="38.75" y="41.31" width="21.58" height="21.58" rx="1.59" ry="1.59"/>
        <rect class="cls-8" x="68.97" y="41.31" width="21.58" height="21.58" rx="1.59" ry="1.59"/>
        <rect class="cls-4" x="99.18" y="41.31" width="21.58" height="21.58" rx="1.59" ry="1.59"/>
        <rect class="cls-4" x="38.81" y="71.52" width="21.58" height="21.58" rx="1.59" ry="1.59"/>
        <rect class="cls-6" x="69.02" y="71.52" width="21.58" height="21.58" rx="1.59" ry="1.59"/>
        <rect class="cls-7" x="99.24" y="71.52" width="21.58" height="21.58" rx="1.59" ry="1.59"/>
      </g>
    </g>
  </g>
</svg>