<?xml version="1.0" encoding="UTF-8"?>
<svg id="Layer_2" data-name="Layer 2" xmlns="http://www.w3.org/2000/svg" viewBox="0 0 176.77 176.77">
  <defs>
    <style>
      .cls-1 {
        fill: #c62535;
      }

      .cls-2 {
        fill: #029347;
      }

      .cls-3 {
        fill: #ffd313;
      }

      .cls-4 {
        fill: #fff;
      }

      .cls-5 {
        fill: #ff5800;
      }

      .cls-6 {
        fill: #0051ba;
      }
    </style>
  </defs>
  <g id="Layer_1-2" data-name="Layer 1">
    <g>
      <rect width="176.77" height="176.77" rx="10.07" ry="10.07"/>
      <g>
        <rect id="rect43" class="cls-5" x="13.89" y="12.77" width="28.66" height="28.66" rx="2" ry="2"/>
        <rect id="rect45" class="cls-6" x="53.96" y="12.77" width="28.66" height="28.66" rx="2" ry="2"/>
        <rect id="rect47" class="cls-4" x="13.89" y="53.58" width="28.66" height="28.66" rx="2" ry="2"/>
        <rect id="rect49" class="cls-3" x="53.96" y="53.58" width="28.66" height="28.66" rx="2" ry="2"/>
        <rect id="rect51" class="cls-3" x="94.15" y="12.89" width="28.66" height="28.66" rx="2" ry="2"/>
        <rect id="rect53" class="cls-2" x="134.22" y="12.89" width="28.66" height="28.66" rx="2" ry="2"/>
        <rect id="rect55" class="cls-1" x="94.15" y="53.71" width="28.66" height="28.66" rx="2" ry="2"/>
        <rect id="rect57" class="cls-5" x="134.22" y="53.71" width="28.66" height="28.66" rx="2" ry="2"/>
        <rect id="rect59" class="cls-1" x="13.89" y="94.53" width="28.66" height="28.66" rx="2" ry="2"/>
        <rect id="rect61" class="cls-5" x="53.96" y="94.53" width="28.66" height="28.66" rx="2" ry="2"/>
        <rect id="rect63" class="cls-2" x="13.89" y="135.34" width="28.66" height="28.66" rx="2" ry="2"/>
        <rect id="rect65" class="cls-2" x="53.96" y="135.34" width="28.66" height="28.66" rx="2" ry="2"/>
        <rect id="rect67" class="cls-6" x="94.15" y="94.53" width="28.66" height="28.66" rx="2" ry="2"/>
        <rect id="rect69" class="cls-1" x="134.22" y="94.53" width="28.66" height="28.66" rx="2" ry="2"/>
        <rect id="rect71" class="cls-4" x="94.15" y="135.34" width="28.66" height="28.66" rx="2" ry="2"/>
        <rect id="rect73" class="cls-3" x="134.22" y="135.34" width="28.66" height="28.66" rx="2" ry="2"/>
      </g>
    </g>
  </g>
</svg>