<?xml version="1.0" encoding="UTF-8"?>
<svg id="Layer_2" data-name="Layer 2" xmlns="http://www.w3.org/2000/svg" viewBox="0 0 172.44 182.45">
  <defs>
    <style>
      .cls-1 {
        fill: #c62535;
      }

      .cls-2 {
        fill: #029347;
      }

      .cls-3 {
        fill: #ffd313;
      }

      .cls-4 {
        fill: #fff;
      }

      .cls-5 {
        fill: #0051ba;
      }
    </style>
  </defs>
  <g id="Layer_1-2" data-name="Layer 1">
    <g>
      <g>
        <rect y="0" width="56.09" height="182.45" rx="15.37" ry="15.37"/>
        <path d="M167.35,113.21c4.14,19.17,8.42,38.99-3.29,53.51-7.65,9.47-20.21,14.08-38.39,14.08-1.34,0-2.73-.02-4.13-.07-23.59-.83-40.4-12.71-48.61-34.38-6.29-16.59-6.81-36.34-6.81-55.16s.63-40.52,8.19-57.69C83.48,12.66,101.65,1.65,126.85,1.65c18.15,0,30.67,4.67,38.27,14.3,11.79,14.93,6.83,35.82,2.44,54.25-1.81,7.63-3.53,14.86-4.03,21,.53,6.79,2.2,14.52,3.82,22.01Z"/>
      </g>
      <g>
        <rect class="cls-3" x="12.96" y="55.12" width="30.09" height="30.09" rx="2.37" ry="2.37"/>
        <rect class="cls-1" x="13.11" y="97.24" width="30.09" height="30.09" rx="2.37" ry="2.37"/>
        <rect class="cls-2" x="13.19" y="139.36" width="30.09" height="30.09" rx="2.37" ry="2.37"/>
        <rect class="cls-5" x="12.93" y="13" width="30.09" height="30.09" rx="2.37" ry="2.37"/>
        <path class="cls-4" d="M150.54,91.19c1.98-30.86,29.76-76.54-23.64-76.54-44.73,0-47.74,38.72-47.74,76.54,0,34.2,1.63,75.1,42.88,76.54,57.51,2.01,30.7-42.25,28.5-76.54Z"/>
      </g>
    </g>
  </g>
</svg>