<?xml version="1.0" encoding="UTF-8"?>
<svg id="Layer_2" data-name="Layer 2" xmlns="http://www.w3.org/2000/svg" viewBox="0 0 171.4 188.92">
  <defs>
    <style>
      .cls-1 {
        fill: #c62535;
      }

      .cls-2 {
        fill: #029347;
      }

      .cls-3 {
        fill: #ffd313;
      }

      .cls-4 {
        fill: #fff;
      }

      .cls-5 {
        fill: #ff5800;
      }

      .cls-6 {
        fill: #0051ba;
      }
    </style>
  </defs>
  <g id="Layer_1-2" data-name="Layer 1">
    <g>
      <g>
        <rect y="0" width="50.69" height="188.92" rx="15.37" ry="15.37"/>
        <path d="M166.3,116.34c4.15,19.2,8.44,39.06-3.3,53.6-7.65,9.49-20.23,14.1-38.45,14.1-1.34,0-2.73-.02-4.13-.07-23.63-.82-40.47-12.73-48.69-34.43-6.3-16.62-6.83-36.42-6.83-55.28s.63-40.6,8.21-57.81c9.19-20.87,27.39-31.9,52.63-31.9,18.18,0,30.72,4.68,38.33,14.32,11.81,14.95,6.83,35.88,2.44,54.35-1.82,7.65-3.54,14.89-4.04,21.05.53,6.81,2.2,14.56,3.83,22.07Z"/>
      </g>
      <g>
        <rect class="cls-1" x="12.99" y="82.12" width="24.69" height="24.69" rx="2.37" ry="2.37"/>
        <rect class="cls-2" x="13.11" y="116.68" width="24.69" height="24.69" rx="2.37" ry="2.37"/>
        <rect class="cls-5" x="13.17" y="151.24" width="24.69" height="24.69" rx="2.37" ry="2.37"/>
        <rect class="cls-3" x="12.96" y="47.56" width="24.69" height="24.69" rx="2.37" ry="2.37"/>
        <rect class="cls-6" x="12.94" y="13" width="24.69" height="24.69" rx="2.37" ry="2.37"/>
        <path class="cls-4" d="M149.46,94.26c1.99-30.93,29.83-76.71-23.69-76.71-44.83,0-47.84,38.81-47.84,76.71,0,34.28,1.63,75.27,42.97,76.71,57.64,2.01,30.77-42.35,28.56-76.71Z"/>
      </g>
    </g>
  </g>
</svg>