<?xml version="1.0" encoding="UTF-8"?>
<svg id="Layer_2" data-name="Layer 2" xmlns="http://www.w3.org/2000/svg" viewBox="0 0 175.13 175.13">
  <defs>
    <style>
      .cls-1 {
        fill: #c62535;
      }

      .cls-2 {
        fill: #e0ddd5;
      }
    </style>
  </defs>
  <g id="Layer_1-2" data-name="Layer 1">
    <g>
      <path d="M175.13,87.57c0,48.28-39.27,87.56-87.56,87.56S0,135.85,0,87.57,39.28,0,87.57,0s87.56,39.28,87.56,87.57Z"/>
      <g>
        <path id="circle17" class="cls-2" d="M87.57,12.53C46.13,12.53,12.54,46.13,12.54,87.57s33.59,75.03,75.03,75.03,75.03-33.59,75.03-75.03S129.01,12.53,87.57,12.53ZM85.53,26.5c.59-2.05,3.5-2.05,4.08,0l16.07,56.23h-.01c.46,1.63.7,3.35.7,5.14,0,10.43-8.42,18.88-18.8,18.88s-18.8-8.45-18.8-18.88c0-1.78.24-3.5.7-5.14h-.02l16.08-56.23Z"/>
        <path class="cls-1" d="M99.94,87.93c0,6.85-5.54,12.41-12.38,12.41s-12.37-5.56-12.37-12.41c0-1.18.17-2.3.46-3.38h0l9.87-34.54c.58-2.05,3.5-2.05,4.09,0l9.87,34.54h0c.31,1.08.47,2.2.47,3.38Z"/>
      </g>
    </g>
  </g>
</svg>