<?xml version="1.0" encoding="UTF-8"?>
<svg id="Layer_2" data-name="Layer 2" xmlns="http://www.w3.org/2000/svg" viewBox="0 0 191.05 182.78">
  <defs>
    <style>
      .cls-1 {
        fill: #fff;
      }

      .cls-1, .cls-2, .cls-3, .cls-4, .cls-5, .cls-6 {
        fill-rule: evenodd;
      }

      .cls-2 {
        fill: #0051ba;
      }

      .cls-3 {
        fill: #ff5800;
      }

      .cls-4 {
        fill: #c62535;
      }

      .cls-5 {
        fill: #ffd313;
      }

      .cls-6 {
        fill: #029347;
      }
    </style>
  </defs>
  <g id="Layer_1-2" data-name="Layer 1">
    <g>
      <path d="M190.5,75.9l-32.22,99.17c-1.5,4.61-5.77,7.71-10.62,7.71H43.4c-4.86,0-9.13-3.1-10.63-7.71L.55,75.9c-1.5-4.61.13-9.63,4.06-12.48L88.96,2.14c1.92-1.4,4.19-2.14,6.56-2.14s4.65.74,6.58,2.14l84.34,61.28c3.93,2.85,5.56,7.87,4.06,12.48Z"/>
      <g>
        <path class="cls-6" d="M95.65,126.65c-5.97,0-11.95-.04-17.92.03-1.25.01-1.9-.27-2.31-1.56-3.66-11.46-7.37-22.9-11.13-34.33-.38-1.16-.25-1.77.77-2.5,9.79-7.05,19.55-14.15,29.28-21.28.94-.69,1.55-.69,2.49,0,9.83,7.2,19.69,14.38,29.59,21.5.89.64,1.09,1.19.76,2.19-3.79,11.55-7.57,23.1-11.3,34.68-.35,1.09-.9,1.3-1.92,1.3-6.1-.04-12.2-.02-18.31-.02Z"/>
        <path class="cls-2" d="M31.1,133.74c-.16-.51.22-1.03.76-1.03h.85c12.33,0,24.66.02,36.99-.03,1.34,0,1.97.33,2.4,1.71,3.77,11.82,7.65,23.61,11.49,35.41.08.23.14.47.21.73.13.47-.18.94-.66,1-.2.03-.39.04-.59.04-12.52,0-25.04,0-37.57.02-1.05,0-1.71-.14-2.09-1.34-3.89-12.18-7.86-24.34-11.8-36.51,0,0,0,0,0,0Z"/>
        <path class="cls-3" d="M159.28,132.72c.56.03.94.6.77,1.13-1.54,4.72-3.05,9.37-4.56,14.02-2.41,7.4-4.83,14.8-7.2,22.21-.3.93-.57,1.53-1.74,1.52-12.7-.04-25.41-.03-38.11-.03,0,0,0,0,0,0-.57,0-.97-.58-.79-1.13.84-2.65,1.65-5.21,2.48-7.76,3.09-9.51,6.2-19.01,9.25-28.52.35-1.08.82-1.48,1.98-1.48,12.58.04,25.15.03,37.73.03.07,0,.14,0,.21,0Z"/>
        <path class="cls-4" d="M24.24,110.44c-.28.21-.69.07-.8-.26-1.65-5-3.24-9.81-4.81-14.64-2.36-7.28-4.68-14.58-7.07-21.85-.32-.96-.37-1.58.56-2.25,10.5-7.57,20.96-15.19,31.44-22.79.01-.01.03-.02.04-.03.27-.14.6.03.7.32,4.06,12.5,8.13,25.01,12.22,37.59.07.21,0,.45-.19.58-10.7,7.78-21.33,15.5-32.1,23.32Z"/>
        <path class="cls-5" d="M127.3,33.89c.57.41.57,1.26,0,1.67-4.31,3.14-8.45,6.16-12.59,9.16-5.95,4.33-11.91,8.64-17.85,12.98-.79.58-1.37.88-2.33.19-10.29-7.53-20.61-15.01-30.93-22.5h0c-.44-.32-.44-.98,0-1.29,5.48-3.98,10.63-7.74,15.79-11.48,4.98-3.62,9.97-7.21,14.93-10.85.79-.58,1.37-.89,2.32-.19,10.12,7.4,20.27,14.77,30.66,22.32Z"/>
        <path class="cls-3" d="M146.98,49.27c.14-.43.66-.6,1.03-.33,7.15,5.19,14.09,10.23,21.03,15.27,3.29,2.39,6.6,4.74,9.82,7.2.49.38.96,1.42.79,1.94-3.9,12.23-7.89,24.44-11.87,36.64,0,0,0,0,0,0-.14.42-.66.57-1.02.31-5-3.62-9.91-7.18-14.81-10.74-5.34-3.88-10.68-7.74-15.97-11.69-.51-.38-1.04-1.39-.88-1.89,3.88-12.19,7.86-24.35,11.88-36.72Z"/>
        <path class="cls-1" d="M141.77,45.63c-3.88,11.93-7.73,23.79-11.63,35.78-.3.92-1.41,1.28-2.2.71-8.56-6.22-16.99-12.34-25.58-18.58-.78-.57-.78-1.74,0-2.31,10.2-7.42,20.3-14.76,30.43-22.12.5-.36,1.18-.36,1.68,0,2.28,1.66,4.51,3.28,6.77,4.93.5.36.71,1.01.52,1.6Z"/>
        <path class="cls-6" d="M78.63,132.78h34.11c.33,0,.57.33.47.65-.76,2.38-1.49,4.66-2.23,6.93-3.21,9.87-6.44,19.72-9.6,29.61-.4,1.26-.95,1.71-2.26,1.65-2.41-.1-4.83.04-7.24-.08-.57-.03-1.45-.55-1.61-1.04-3.96-11.94-11.6-35.47-12.12-37.07-.02-.06-.03-.12-.02-.18,0,0,0,0,0,0,.02-.26.23-.46.49-.46Z"/>
        <path class="cls-1" d="M58.94,93.95c3.47,10.68,6.86,21.12,10.31,31.74.15.47-.2.95-.69.95h-.94c-12.33,0-24.66-.03-36.99.04-1.5,0-2.13-.5-2.51-1.86-.63-2.25-1.46-4.45-2.07-6.71-.14-.52.06-1.45.44-1.73,10.33-7.58,20.7-15.1,31.32-22.81.4-.29.97-.11,1.12.37Z"/>
        <path class="cls-5" d="M89.51,63.02c-8.96,6.51-17.78,12.92-26.8,19.47-.43.32-1.05.12-1.22-.4-.78-2.42-1.52-4.7-2.26-6.98-3.15-9.7-6.27-19.4-9.48-29.07-.39-1.18-.25-1.82.78-2.52,1.85-1.25,3.65-2.59,5.55-3.98.85-.62,2.01-.63,2.87,0,10.12,7.36,20.28,14.73,30.55,22.2.43.32.43.96,0,1.28Z"/>
        <path class="cls-2" d="M122.1,125.86c3.44-10.61,6.87-21.18,10.37-31.94.13-.39.59-.54.92-.3,3.33,2.42,6.54,4.76,9.75,7.09,7.03,5.1,14.05,10.22,21.11,15.28,1.04.75,1.29,1.37.73,2.68-.86,2.05-1.57,4.15-2.07,6.32-.28,1.21-.66,1.68-1.8,1.67-12.82-.03-25.65-.03-38.47-.03,0,0,0,0,0,0-.4,0-.67-.41-.54-.78Z"/>
      </g>
    </g>
  </g>
</svg>