<?xml version="1.0" encoding="UTF-8"?>
<svg id="Layer_2" data-name="Layer 2" xmlns="http://www.w3.org/2000/svg" viewBox="0 0 207.1 182.29">
  <defs>
    <style>
      .cls-1 {
        fill: #0051ba;
      }

      .cls-1, .cls-2, .cls-3, .cls-4 {
        fill-rule: evenodd;
      }

      .cls-2 {
        fill: #c62535;
      }

      .cls-3 {
        fill: #ffd313;
      }

      .cls-4 {
        fill: #029347;
      }
    </style>
  </defs>
  <g id="Layer_1-2" data-name="Layer 1">
    <g>
      <path d="M205.63,176.81c-1.95,3.38-5.58,5.48-9.48,5.48H10.95c-3.9,0-7.53-2.1-9.49-5.48-1.95-3.38-1.95-7.57,0-10.95L94.06,5.48c1.95-3.38,5.59-5.48,9.49-5.48s7.53,2.1,9.49,5.48l92.59,160.38c1.95,3.38,1.95,7.57,0,10.95Z"/>
      <g>
        <path class="cls-4" d="M105.07,11.81c8.03,13.91,15.92,27.57,23.88,41.35.67,1.16-.17,2.62-1.51,2.62h-47.75c-1.34,0-2.18-1.45-1.51-2.61,7.92-13.72,15.82-27.4,23.87-41.35.67-1.16,2.35-1.16,3.02,0Z"/>
        <path class="cls-1" d="M38.28,127.49c8,13.85,15.86,27.48,23.8,41.23.67,1.16-.17,2.62-1.51,2.62H12.96c-1.34,0-2.18-1.45-1.51-2.62,7.94-13.75,15.81-27.39,23.8-41.23.67-1.16,2.35-1.16,3.02,0Z"/>
        <path class="cls-2" d="M171.86,127.49c7.98,13.83,15.85,27.45,23.79,41.21.67,1.16-.17,2.62-1.51,2.62h-47.58c-1.34,0-2.18-1.45-1.51-2.62,7.92-13.72,15.79-27.36,23.79-41.21.67-1.16,2.35-1.16,3.02,0Z"/>
        <path class="cls-4" d="M78.23,168.74c7.97-13.81,15.83-27.42,23.79-41.21.67-1.16,2.35-1.16,3.02,0,7.98,13.81,15.85,27.45,23.8,41.21.67,1.16-.17,2.62-1.51,2.62h-47.6c-1.34,0-2.18-1.46-1.51-2.62Z"/>
        <path class="cls-1" d="M79.73,63.34h47.6c1.34,0,2.18,1.45,1.51,2.62-7.94,13.76-15.81,27.4-23.8,41.22-.67,1.16-2.35,1.16-3.02,0-7.96-13.79-15.83-27.41-23.8-41.22-.67-1.16.17-2.62,1.51-2.62Z"/>
        <path class="cls-2" d="M111.66,110.83c7.93-13.73,15.78-27.33,23.78-41.18.67-1.16,2.35-1.16,3.02,0,8,13.86,15.85,27.46,23.78,41.18.67,1.16-.17,2.62-1.51,2.62h-47.56c-1.34,0-2.18-1.45-1.51-2.62Z"/>
        <path class="cls-4" d="M135.42,165.02c-7.99-13.84-15.83-27.42-23.75-41.14-.67-1.16.17-2.62,1.51-2.62h47.5c1.34,0,2.18,1.45,1.51,2.62-7.9,13.69-15.75,27.27-23.75,41.14-.67,1.16-2.35,1.16-3.02,0Z"/>
        <path class="cls-3" d="M93.91,113.47h-47.54c-1.34,0-2.18-1.45-1.51-2.62,7.92-13.72,15.77-27.32,23.77-41.17.67-1.16,2.35-1.16,3.02,0,7.99,13.84,15.84,27.44,23.77,41.17.67,1.16-.17,2.62-1.51,2.62Z"/>
        <path class="cls-2" d="M46.41,121.24h47.5c1.34,0,2.18,1.45,1.51,2.62-7.91,13.7-15.75,27.28-23.74,41.13-.67,1.16-2.35,1.16-3.02,0-7.96-13.79-15.81-27.37-23.75-41.13-.67-1.16.17-2.62,1.51-2.62Z"/>
      </g>
    </g>
  </g>
</svg>