<?xml version="1.0" encoding="UTF-8"?>
<svg id="Layer_2" data-name="Layer 2" xmlns="http://www.w3.org/2000/svg" viewBox="0 0 176.77 176.77">
  <defs>
    <style>
      .cls-1 {
        fill: #c62535;
      }

      .cls-2 {
        fill: #029347;
      }

      .cls-3 {
        fill: #ffd313;
      }

      .cls-4 {
        fill: #fff;
      }
    </style>
  </defs>
  <g id="Layer_1-2" data-name="Layer 1">
    <g>
      <rect x="0" width="176.77" height="176.77" rx="10.07" ry="10.07"/>
      <g>
        <rect class="cls-2" x="35.61" y="35.61" width="105.55" height="105.55" rx="2.82" ry="2.82" transform="translate(-36.61 88.39) rotate(-45)"/>
        <path class="cls-1" d="M15.57,12.93h58.88c2.52,0,3.77,3.04,2,4.82l-58.88,58.88c-1.78,1.78-4.82.52-4.82-2V15.75c0-1.56,1.26-2.82,2.82-2.82Z"/>
        <path class="cls-4" d="M12.74,161.02v-58.88c0-2.52,3.04-3.77,4.82-2l58.88,58.88c1.78,1.78.52,4.82-2,4.82H15.57c-1.56,0-2.82-1.26-2.82-2.82Z"/>
        <path class="cls-3" d="M161.21,163.85h-58.88c-2.52,0-3.77-3.04-2-4.82l58.88-58.88c1.78-1.78,4.82-.52,4.82,2v58.88c0,1.56-1.26,2.82-2.82,2.82Z"/>
        <path class="cls-3" d="M164.03,15.75v58.88c0,2.52-3.04,3.77-4.82,2l-58.88-58.88c-1.78-1.78-.52-4.82,2-4.82h58.88c1.56,0,2.82,1.26,2.82,2.82Z"/>
      </g>
    </g>
  </g>
</svg>