<?xml version="1.0" encoding="UTF-8"?>
<svg id="Layer_2" data-name="Layer 2" xmlns="http://www.w3.org/2000/svg" viewBox="0 0 176.77 176.77">
  <defs>
    <style>
      .cls-1 {
        fill: #ffd313;
      }

      .cls-2 {
        fill: #fff;
      }
    </style>
  </defs>
  <g id="Layer_1-2" data-name="Layer 1">
    <g>
      <rect width="176.77" height="176.77" rx="11.34" ry="11.34" transform="translate(176.77) rotate(90)"/>
      <g>
        <path class="cls-2" d="M11.53,59.62V14.23c0-1.44,1.16-2.6,2.6-2.6h45.58c1.18,0,2.21.79,2.51,1.93l16.62,62.01c.52,1.93-1.25,3.7-3.18,3.18L13.46,62.13c-1.14-.3-1.93-1.33-1.93-2.51Z"/>
        <path class="cls-2" d="M165.24,59.62V14.23c0-1.44-1.16-2.6-2.6-2.6h-45.58c-1.18,0-2.21.79-2.51,1.93l-16.62,62.01c-.52,1.93,1.25,3.7,3.18,3.18l62.2-16.62c1.14-.3,1.93-1.33,1.93-2.51Z"/>
        <path class="cls-1" d="M165.24,117.11v45.39c0,1.44-1.16,2.6-2.6,2.6h-45.58c-1.18,0-2.21-.79-2.51-1.93l-16.62-62.01c-.52-1.93,1.25-3.7,3.18-3.18l62.2,16.62c1.14.3,1.93,1.33,1.93,2.51Z"/>
        <path class="cls-1" d="M11.53,117.11v45.39c0,1.44,1.16,2.6,2.6,2.6h45.58c1.18,0,2.21-.79,2.51-1.93l16.62-62.01c.52-1.93-1.25-3.7-3.18-3.18l-62.2,16.62c-1.14.3-1.93,1.33-1.93,2.51Z"/>
        <path class="cls-1" d="M72.85,14.86l13.01,52.02c.66,2.62,4.39,2.62,5.04,0l13.01-52.02c.41-1.64-.83-3.23-2.52-3.23h-26.03c-1.69,0-2.93,1.59-2.52,3.23Z"/>
        <path class="cls-2" d="M72.85,161.91l13.01-52.02c.66-2.62,4.39-2.62,5.04,0l13.01,52.02c.41,1.64-.83,3.23-2.52,3.23h-26.03c-1.69,0-2.93-1.59-2.52-3.23Z"/>
        <path class="cls-1" d="M161.91,103.9l-52.02-13.01c-2.62-.66-2.62-4.39,0-5.04l52.02-13.01c1.64-.41,3.23.83,3.23,2.52v26.03c0,1.69-1.59,2.93-3.23,2.52Z"/>
        <path class="cls-2" d="M14.82,103.9l52.02-13.01c2.62-.66,2.62-4.39,0-5.04l-52.02-13.01c-1.64-.41-3.23.83-3.23,2.52v26.03c0,1.69,1.59,2.93,3.23,2.52Z"/>
      </g>
    </g>
  </g>
</svg>