<?xml version="1.0" encoding="UTF-8"?>
<svg id="Layer_1" xmlns="http://www.w3.org/2000/svg" version="1.1" viewBox="0 0 1080 1080">
  <!-- Generator: Adobe Illustrator 30.2.1, SVG Export Plug-In . SVG Version: 2.1.1 Build 1)  -->
  <defs>
    <style>
      .st0 {
        fill: #4a81c0;
      }

      .st1 {
        fill: #85c1ad;
      }

      .st2 {
        fill: #e89bab;
      }

      .st3 {
        fill: #d14339;
      }

      .st4 {
        fill: #ad3a3a;
      }

      .st5 {
        fill: #68a051;
      }

      .st6 {
        fill: #467cbc;
      }

      .st7 {
        fill: #bf5234;
      }

      .st8 {
        fill: #457b44;
      }

      .st9 {
        fill: #e1703a;
      }

      .st10 {
        opacity: .8;
      }

      .st11 {
        fill: #6da854;
      }

      .st12 {
        fill: #db6b38;
      }

      .st13 {
        fill: #e27574;
      }

      .st14 {
        fill: #206194;
      }

      .st15 {
        fill: #b54d63;
      }

      .st16 {
        fill: #75bfac;
      }

      .st17 {
        fill: #da6e7b;
      }

      .st18 {
        fill: #4d9f88;
      }
    </style>
  </defs>
  <polygon class="st17" points="895.3 471.5 784.8 535.7 673.6 471.5 784.1 407.3 895.3 471.5"/>
  <polygon class="st2" points="779.4 545.3 779.1 673.1 667.8 608.9 668.2 481.1 779.4 545.3"/>
  <polygon class="st15" points="901.9 481.3 901.6 609.1 790.1 672.8 790.4 545 901.9 481.3"/>
  <polygon class="st6" points="772.8 260.5 662.3 324.8 551 260.5 661.6 196.3 772.8 260.5"/>
  <g class="st10">
    <polygon class="st0" points="656.9 334.3 656.5 462.1 545.3 397.9 545.6 270.1 656.9 334.3"/>
  </g>
  <polygon class="st14" points="778.9 270.1 779.3 397.9 668 462.1 667.7 334.3 778.9 270.1"/>
  <polygon class="st3" points="528.3 260.5 417.8 324.8 306.5 260.5 417.1 196.3 528.3 260.5"/>
  <polygon class="st13" points="412.4 334.3 412 462.1 300.8 397.9 301.1 270.1 412.4 334.3"/>
  <polygon class="st4" points="534.4 270.1 534.8 397.9 423.5 462.1 423.2 334.3 534.4 270.1"/>
  <polygon class="st16" points="772.8 682.1 662.3 746.3 551 682.1 661.6 617.9 772.8 682.1"/>
  <g class="st10">
    <polygon class="st1" points="656.9 755.9 656.5 883.7 545.3 819.5 545.6 691.6 656.9 755.9"/>
  </g>
  <polygon class="st18" points="778.9 691.6 779.3 819.5 668 883.7 667.7 755.9 778.9 691.6"/>
  <polygon class="st12" points="528.3 682.1 417.8 746.3 306.5 682.1 417.1 617.9 528.3 682.1"/>
  <g class="st10">
    <polygon class="st9" points="412.4 755.9 412 883.7 300.8 819.5 301.1 691.6 412.4 755.9"/>
  </g>
  <polygon class="st7" points="534.4 691.6 534.8 819.5 423.5 883.7 423.2 755.9 534.4 691.6"/>
  <polygon class="st5" points="405.6 471.5 295.1 535.7 183.9 471.5 294.4 407.3 405.6 471.5"/>
  <g class="st10">
    <polygon class="st11" points="289.7 545.3 289.3 673.1 178.1 608.9 178.5 481.1 289.7 545.3"/>
  </g>
  <polygon class="st8" points="411.7 481.1 412.1 608.9 300.8 673.1 300.5 545.3 411.7 481.1"/>
</svg>