<?xml version="1.0" encoding="UTF-8"?>
<svg id="Layer_1" xmlns="http://www.w3.org/2000/svg" version="1.1" viewBox="0 0 1080 1080">
  <!-- Generator: Adobe Illustrator 30.2.1, SVG Export Plug-In . SVG Version: 2.1.1 Build 1)  -->
  <defs>
    <style>
      .st0 {
        fill: #e27674;
      }

      .st1 {
        fill: #ae3b3a;
      }

      .st2 {
        fill: #68a151;
      }

      .st3 {
        fill: #4b81bf;
      }

      .st4 {
        fill: #e89bab;
      }

      .st5 {
        fill: #d96f7b;
      }

      .st6 {
        fill: #477dbd;
      }

      .st7 {
        fill: #d14439;
      }

      .st8 {
        fill: #76c0ad;
      }

      .st9 {
        fill: #467c45;
      }

      .st10 {
        fill: #e0713b;
      }

      .st11 {
        fill: #da6b39;
      }

      .st12 {
        fill: #226295;
      }

      .st13 {
        opacity: .8;
      }

      .st14 {
        fill: #6da854;
      }

      .st15 {
        fill: #bf5334;
      }

      .st16 {
        fill: #b54e63;
      }

      .st17 {
        fill: #86c1ad;
      }

      .st18 {
        fill: #4d9f88;
      }
    </style>
  </defs>
  <polygon class="st5" points="1064.8 438.8 901.6 533.6 737.3 438.8 900.6 344 1064.8 438.8"/>
  <polygon class="st4" points="893.6 547.8 893.2 736.6 728.8 641.8 729.4 453 893.6 547.8"/>
  <polygon class="st16" points="1074.6 453.3 1074.1 642.1 909.4 736.2 909.9 547.4 1074.6 453.3"/>
  <polygon class="st6" points="883.9 127.1 720.7 222.1 556.2 127.1 719.6 32.3 883.9 127.1"/>
  <g class="st13">
    <polygon class="st3" points="712.7 236.2 712.1 424.9 547.8 330.1 548.3 141.3 712.7 236.2"/>
  </g>
  <polygon class="st12" points="892.9 141.3 893.5 330.1 729.1 424.9 728.6 236.2 892.9 141.3"/>
  <polygon class="st7" points="522.7 127.1 359.5 222.1 195.1 127.1 358.5 32.3 522.7 127.1"/>
  <polygon class="st0" points="351.5 236.2 350.9 424.9 186.7 330.1 187.1 141.3 351.5 236.2"/>
  <polygon class="st1" points="531.7 141.3 532.3 330.1 367.9 424.9 367.5 236.2 531.7 141.3"/>
  <polygon class="st8" points="883.9 749.9 720.7 844.7 556.2 749.9 719.6 655.1 883.9 749.9"/>
  <g class="st13">
    <polygon class="st17" points="712.7 858.9 712.1 1047.7 547.8 952.9 548.3 763.9 712.7 858.9"/>
  </g>
  <polygon class="st18" points="892.9 763.9 893.5 952.9 729.1 1047.7 728.6 858.9 892.9 763.9"/>
  <polygon class="st11" points="522.7 749.9 359.5 844.7 195.1 749.9 358.5 655.1 522.7 749.9"/>
  <g class="st13">
    <polygon class="st10" points="351.5 858.9 350.9 1047.7 186.7 952.9 187.1 763.9 351.5 858.9"/>
  </g>
  <polygon class="st15" points="531.7 763.9 532.3 952.9 367.9 1047.7 367.5 858.9 531.7 763.9"/>
  <polygon class="st2" points="341.5 438.8 178.2 533.6 14 438.8 177.2 344 341.5 438.8"/>
  <g class="st13">
    <polygon class="st14" points="170.3 547.8 169.7 736.6 5.4 641.8 6 453 170.3 547.8"/>
  </g>
  <polygon class="st9" points="350.5 453 351.1 641.8 186.7 736.6 186.2 547.8 350.5 453"/>
</svg>