<?xml version="1.0" encoding="UTF-8"?>
<svg id="Layer_1" xmlns="http://www.w3.org/2000/svg" version="1.1" viewBox="0 0 1080 1080">
  <!-- Generator: Adobe Illustrator 30.2.1, SVG Export Plug-In . SVG Version: 2.1.1 Build 1)  -->
  <defs>
    <style>
      .st0 {
        fill: #4a81c0;
      }

      .st1 {
        fill: #85c1ad;
      }

      .st2 {
        fill: #e89bab;
      }

      .st3 {
        fill: #d14339;
      }

      .st4 {
        fill: #ad3a3a;
      }

      .st5 {
        fill: #68a051;
      }

      .st6 {
        fill: #467cbc;
      }

      .st7 {
        fill: #bf5234;
      }

      .st8 {
        fill: #457b44;
      }

      .st9 {
        fill: #e1703a;
      }

      .st10 {
        opacity: .8;
      }

      .st11 {
        fill: #6da854;
      }

      .st12 {
        fill: #db6b38;
      }

      .st13 {
        fill: #e27574;
      }

      .st14 {
        fill: #206194;
      }

      .st15 {
        fill: #b54d63;
      }

      .st16 {
        fill: #75bfac;
      }

      .st17 {
        fill: #da6e7b;
      }

      .st18 {
        fill: #4d9f88;
      }
    </style>
  </defs>
  <g>
    <polygon class="st17" points="447.2 509 397.2 538.1 346.9 509 396.9 480 447.2 509"/>
    <polygon class="st2" points="394.8 542.4 394.6 600.2 344.3 571.1 344.5 513.3 394.8 542.4"/>
    <polygon class="st15" points="450.2 513.5 450 571.3 399.6 600.1 399.7 542.3 450.2 513.5"/>
    <polygon class="st6" points="391.8 413.6 341.8 442.7 291.5 413.6 341.5 384.6 391.8 413.6"/>
    <g class="st10">
      <polygon class="st0" points="339.3 447 339.2 504.8 288.9 475.7 289 417.9 339.3 447"/>
    </g>
    <polygon class="st14" points="394.5 417.9 394.7 475.7 344.4 504.8 344.2 447 394.5 417.9"/>
    <polygon class="st3" points="281.2 413.6 231.2 442.7 180.9 413.6 230.9 384.6 281.2 413.6"/>
    <polygon class="st13" points="228.8 447 228.6 504.8 178.3 475.7 178.5 417.9 228.8 447"/>
    <polygon class="st4" points="284 417.9 284.1 475.7 233.8 504.8 233.7 447 284 417.9"/>
    <polygon class="st16" points="391.8 604.3 341.8 633.3 291.5 604.3 341.5 575.2 391.8 604.3"/>
    <g class="st10">
      <polygon class="st1" points="339.3 637.6 339.2 695.4 288.9 666.4 289 608.6 339.3 637.6"/>
    </g>
    <polygon class="st18" points="394.5 608.6 394.7 666.4 344.4 695.4 344.2 637.6 394.5 608.6"/>
    <polygon class="st12" points="281.2 604.3 231.2 633.3 180.9 604.3 230.9 575.2 281.2 604.3"/>
    <g class="st10">
      <polygon class="st9" points="228.8 637.6 228.6 695.4 178.3 666.4 178.5 608.6 228.8 637.6"/>
    </g>
    <polygon class="st7" points="284 608.6 284.1 666.4 233.8 695.4 233.7 637.6 284 608.6"/>
    <polygon class="st5" points="225.7 509 175.7 538.1 125.4 509 175.4 480 225.7 509"/>
    <g class="st10">
      <polygon class="st11" points="173.3 542.4 173.1 600.2 122.8 571.1 123 513.3 173.3 542.4"/>
    </g>
    <polygon class="st8" points="228.5 513.3 228.6 571.1 178.3 600.2 178.2 542.4 228.5 513.3"/>
  </g>
  <g>
    <path class="st14" d="M513.1,472h-5l-10.8-32.8h5.4l8,24.5h0l7.7-24.5h5.2l7.7,24.5h0l7.9-24.5h5.3l-10.8,32.8h-5l-7.8-25h0l-7.8,25Z"/>
    <path class="st14" d="M560.5,470.2c-2.7-1.5-4.7-3.5-6.3-6.1-1.5-2.6-2.3-5.4-2.3-8.5s.8-5.9,2.3-8.5c1.5-2.6,3.6-4.6,6.3-6.1,2.7-1.5,5.6-2.3,8.8-2.3s5.6.6,7.9,1.9c2.3,1.3,4.1,2.7,5.5,4.4l-3.6,3c-1.2-1.3-2.5-2.4-4.1-3.3-1.5-.9-3.4-1.3-5.7-1.3s-4.3.5-6.1,1.6-3.4,2.6-4.4,4.4-1.6,3.9-1.6,6.1.5,4.3,1.6,6.1c1.1,1.9,2.6,3.4,4.4,4.4,1.9,1.1,3.9,1.6,6.1,1.6s4.2-.4,5.8-1.3c1.6-.9,3-2,4.2-3.4l3.6,3c-1.4,1.8-3.3,3.3-5.6,4.5s-5,1.9-8,1.9-6.2-.8-8.8-2.3Z"/>
    <path class="st14" d="M594.6,472h-5.3l13.1-32.8h5.6l13.1,32.8h-5.5l-3.3-8.4h-14.5l-3.3,8.4ZM605.1,445.1l-5.3,13.7h10.8l-5.4-13.7h0Z"/>
    <path class="st14" d="M507.5,526.5c-2.7-1.5-4.7-3.5-6.3-6.1-1.5-2.6-2.3-5.4-2.3-8.5s.8-5.9,2.3-8.5c1.5-2.6,3.6-4.6,6.3-6.1,2.7-1.5,5.6-2.3,8.8-2.3s5.6.6,7.9,1.9c2.3,1.3,4.1,2.7,5.5,4.4l-3.6,3c-1.2-1.3-2.5-2.4-4.1-3.3s-3.4-1.3-5.7-1.3-4.3.5-6.1,1.6c-1.9,1.1-3.4,2.6-4.4,4.4-1.1,1.9-1.6,3.9-1.6,6.1s.5,4.3,1.6,6.1c1.1,1.9,2.6,3.4,4.4,4.4,1.9,1.1,3.9,1.6,6.1,1.6s4.2-.4,5.8-1.3c1.6-.9,3-2,4.2-3.4l3.6,3c-1.4,1.8-3.3,3.3-5.6,4.5-2.3,1.3-5,1.9-8,1.9s-6.2-.8-8.8-2.3Z"/>
    <path class="st14" d="M546.2,526.5c-2.7-1.5-4.7-3.5-6.3-6.1-1.5-2.6-2.3-5.4-2.3-8.5s.8-5.9,2.3-8.5c1.5-2.6,3.6-4.6,6.3-6.1,2.7-1.5,5.6-2.3,8.8-2.3s6.2.8,8.8,2.3c2.7,1.5,4.7,3.5,6.3,6.1,1.5,2.6,2.3,5.4,2.3,8.5s-.8,5.9-2.3,8.5c-1.5,2.6-3.6,4.6-6.3,6.1-2.7,1.5-5.6,2.3-8.8,2.3s-6.2-.8-8.8-2.3ZM561.2,522.4c1.9-1.1,3.4-2.6,4.4-4.4,1.1-1.9,1.6-3.9,1.6-6.1s-.5-4.3-1.6-6.1c-1.1-1.9-2.6-3.4-4.4-4.4-1.9-1.1-3.9-1.6-6.1-1.6s-4.3.5-6.1,1.6c-1.9,1.1-3.4,2.6-4.4,4.4-1.1,1.9-1.6,3.9-1.6,6.1s.5,4.3,1.6,6.1c1.1,1.9,2.6,3.4,4.4,4.4,1.9,1.1,3.9,1.6,6.1,1.6s4.3-.5,6.1-1.6Z"/>
    <path class="st14" d="M589.5,528.3h-5.2v-32.8h4.7l17.9,24h.1v-24h5.2v32.8h-4.7l-17.9-24h-.1v24Z"/>
    <path class="st14" d="M637.6,528.3h-5.2v-28.2h-9.9v-4.7h24.9v4.7h-9.9v28.2Z"/>
    <path class="st14" d="M663,528.3h-5.2v-32.8h5.2v32.8Z"/>
    <path class="st14" d="M682.2,528.3h-5.2v-32.8h4.7l17.9,24h.1v-24h5.2v32.8h-4.7l-17.9-24h-.1v24Z"/>
    <path class="st14" d="M742.7,528.3h-23.7v-32.8h23.2v4.7h-18.1v8.8h14.3v4.7h-14.3v10h18.5v4.7Z"/>
    <path class="st14" d="M759.6,528.3h-5.2v-32.8h4.7l17.9,24h.1v-24h5.2v32.8h-4.7l-17.9-24h-.1v24Z"/>
    <path class="st14" d="M807.7,528.3h-5.2v-28.2h-9.9v-4.7h24.9v4.7h-9.9v28.2Z"/>
    <path class="st14" d="M826.9,528.3h-5.3l13.1-32.8h5.6l13.1,32.8h-5.5l-3.3-8.4h-14.5l-3.3,8.4ZM837.4,501.4l-5.3,13.7h10.8l-5.4-13.7h0Z"/>
    <path class="st14" d="M884.7,528.3h-21.1v-32.8h5.2v28.2h16v4.7Z"/>
    <path class="st14" d="M507.5,582.8c-2.7-1.5-4.7-3.5-6.3-6.1-1.5-2.6-2.3-5.4-2.3-8.5s.8-5.9,2.3-8.5c1.5-2.6,3.6-4.6,6.3-6.1,2.7-1.5,5.6-2.3,8.8-2.3s5.6.6,7.9,1.9c2.3,1.3,4.1,2.7,5.5,4.4l-3.6,3c-1.2-1.3-2.5-2.4-4.1-3.3s-3.4-1.3-5.7-1.3-4.3.5-6.1,1.6c-1.9,1.1-3.4,2.6-4.4,4.4-1.1,1.9-1.6,3.9-1.6,6.1s.5,4.3,1.6,6.1c1.1,1.9,2.6,3.4,4.4,4.4,1.9,1.1,3.9,1.6,6.1,1.6s4.2-.4,5.8-1.3c1.6-.9,3-2,4.2-3.4l3.6,3c-1.4,1.8-3.3,3.3-5.6,4.5-2.3,1.3-5,1.9-8,1.9s-6.2-.8-8.8-2.3Z"/>
    <path class="st14" d="M545.9,584.6h-5.2v-32.8h5.2v13.8h16.2v-13.8h5.2v32.8h-5.2v-14.3h-16.2v14.3Z"/>
    <path class="st14" d="M582.6,584.6h-5.3l13.1-32.8h5.6l13.1,32.8h-5.5l-3.3-8.4h-14.5l-3.3,8.4ZM593.1,557.7l-5.3,13.7h10.8l-5.4-13.7h0Z"/>
    <path class="st14" d="M624.5,584.6h-5.2v-32.8h4.7l12.4,15.9h0l12.4-15.9h4.6v32.8h-5.2v-24h-.2l-11.8,15.1-11.8-15.1h-.2v24Z"/>
    <path class="st14" d="M667.6,584.6v-32.8h13.1c2.1,0,3.9.5,5.6,1.4s3,2.2,4,3.8,1.4,3.4,1.4,5.3-.5,3.7-1.4,5.3c-1,1.6-2.3,2.9-4,3.8s-3.6,1.4-5.6,1.4h-8v11.7h-5.2ZM680.8,568.2c1.7,0,3-.6,4.2-1.7s1.7-2.5,1.7-4.2-.6-3.1-1.7-4.2-2.5-1.7-4.2-1.7h-8v11.7h8Z"/>
    <path class="st14" d="M708,584.6h-5.2v-32.8h5.2v32.8Z"/>
    <path class="st14" d="M728.5,582.8c-2.7-1.5-4.7-3.5-6.3-6.1-1.5-2.6-2.3-5.4-2.3-8.5s.8-5.9,2.3-8.5c1.5-2.6,3.6-4.6,6.3-6.1,2.7-1.5,5.6-2.3,8.8-2.3s6.2.8,8.8,2.3c2.7,1.5,4.7,3.5,6.3,6.1,1.5,2.6,2.3,5.4,2.3,8.5s-.8,5.9-2.3,8.5c-1.5,2.6-3.6,4.6-6.3,6.1-2.7,1.5-5.6,2.3-8.8,2.3s-6.2-.8-8.8-2.3ZM743.5,578.7c1.9-1.1,3.4-2.6,4.4-4.4,1.1-1.9,1.6-3.9,1.6-6.1s-.5-4.3-1.6-6.1c-1.1-1.9-2.6-3.4-4.4-4.4-1.9-1.1-3.9-1.6-6.1-1.6s-4.3.5-6.1,1.6c-1.9,1.1-3.4,2.6-4.4,4.4-1.1,1.9-1.6,3.9-1.6,6.1s.5,4.3,1.6,6.1c1.1,1.9,2.6,3.4,4.4,4.4,1.9,1.1,3.9,1.6,6.1,1.6s4.3-.5,6.1-1.6Z"/>
    <path class="st14" d="M771.8,584.6h-5.2v-32.8h4.7l17.9,24h.1v-24h5.2v32.8h-4.7l-17.9-24h-.1v24Z"/>
    <path class="st14" d="M810.8,583.6c-2-1-3.6-2.1-4.7-3.5l3.5-3.4c2.3,2.4,5,3.6,8.3,3.6s3.6-.5,4.8-1.4c1.2-1,1.8-2.1,1.8-3.5s-.3-1.8-.9-2.4c-.6-.6-1.4-1.1-2.3-1.5s-2.2-.8-3.8-1.2c-2.2-.7-4-1.3-5.4-1.9-1.3-.6-2.5-1.6-3.5-2.8-1-1.3-1.5-3-1.5-5.1s.5-3.2,1.4-4.6,2.2-2.5,3.9-3.3c1.7-.8,3.7-1.2,6-1.2s4.2.4,6,1.3c1.8.8,3.2,1.8,4.3,3l-3.5,3.4c-.8-.8-1.8-1.5-3-2-1.2-.6-2.5-.9-3.9-.9s-3.4.4-4.5,1.3-1.6,1.9-1.6,3.2.3,1.8.9,2.4c.6.6,1.4,1.1,2.3,1.5s2.2.8,3.8,1.2c2.2.7,4,1.3,5.3,1.9,1.3.6,2.5,1.6,3.5,2.8,1,1.3,1.5,3,1.5,5.1s-.5,3.3-1.4,4.8c-1,1.5-2.3,2.6-4.1,3.5s-3.8,1.3-6.2,1.3-5-.5-7-1.5Z"/>
    <path class="st14" d="M846.4,584.6h-5.2v-32.8h5.2v13.8h16.2v-13.8h5.2v32.8h-5.2v-14.3h-16.2v14.3Z"/>
    <path class="st14" d="M887,584.6h-5.2v-32.8h5.2v32.8Z"/>
    <path class="st14" d="M901.1,584.6v-32.8h13.1c2.1,0,3.9.5,5.6,1.4s3,2.2,4,3.8c1,1.6,1.4,3.4,1.4,5.3s-.5,3.7-1.4,5.3c-1,1.6-2.3,2.9-4,3.8s-3.6,1.4-5.6,1.4h-8v11.7h-5.2ZM914.2,568.2c1.7,0,3-.6,4.2-1.7s1.7-2.5,1.7-4.2-.6-3.1-1.7-4.2-2.5-1.7-4.2-1.7h-8v11.7h8Z"/>
    <path class="st14" d="M938.4,583.6c-2-1-3.6-2.1-4.7-3.5l3.5-3.4c2.3,2.4,5,3.6,8.3,3.6s3.6-.5,4.8-1.4c1.2-1,1.8-2.1,1.8-3.5s-.3-1.8-.9-2.4c-.6-.6-1.4-1.1-2.3-1.5s-2.2-.8-3.8-1.2c-2.2-.7-4-1.3-5.4-1.9-1.3-.6-2.5-1.6-3.5-2.8-1-1.3-1.5-3-1.5-5.1s.5-3.2,1.4-4.6,2.2-2.5,3.9-3.3c1.7-.8,3.7-1.2,6-1.2s4.2.4,6,1.3c1.8.8,3.2,1.8,4.3,3l-3.5,3.4c-.8-.8-1.8-1.5-3-2-1.2-.6-2.5-.9-3.9-.9s-3.4.4-4.5,1.3-1.6,1.9-1.6,3.2.3,1.8.9,2.4c.6.6,1.4,1.1,2.3,1.5s2.2.8,3.8,1.2c2.2.7,4,1.3,5.3,1.9,1.3.6,2.5,1.6,3.5,2.8,1,1.3,1.5,3,1.5,5.1s-.5,3.3-1.4,4.8c-1,1.5-2.3,2.6-4.1,3.5s-3.8,1.3-6.2,1.3-5-.5-7-1.5Z"/>
    <path class="st14" d="M498,640.9c0-2.6.5-4.9,1.5-6.8,1-1.9,2.2-3.5,3.5-4.7,1.4-1.2,3.2-2.5,5.3-4,1.5-1,2.7-1.9,3.6-2.6s1.5-1.4,2.1-2.3.8-1.8.8-2.9c0-1.6-.5-2.8-1.5-3.8-1-.9-2.5-1.4-4.3-1.4s-3,.4-4,1.3c-1.1.9-1.8,1.9-2.3,3.1l-4.2-1.9c.3-1.2,1-2.4,1.9-3.5s2.1-2.1,3.6-2.9c1.5-.8,3.2-1.1,5.2-1.1s4,.4,5.7,1.3c1.7.9,3,2.1,3.9,3.6.9,1.5,1.4,3.2,1.4,5.1s-.4,3.3-1.1,4.6c-.8,1.3-1.7,2.5-2.8,3.4s-2.6,2-4.5,3.3c-2,1.3-3.5,2.5-4.7,3.5-1.2,1-2.1,2.2-2.8,3.5h16v4.9h-22.1Z"/>
    <path class="st14" d="M536.4,639.4c-2.1-1.3-3.7-3.3-4.9-5.8-1.2-2.6-1.8-5.6-1.8-9.1s.6-6.5,1.8-9.1c1.2-2.6,2.8-4.5,4.9-5.8,2.1-1.3,4.4-2,6.9-2s4.8.7,6.9,2c2.1,1.3,3.7,3.3,4.9,5.8,1.2,2.5,1.8,5.6,1.8,9.1s-.6,6.5-1.8,9.1c-1.2,2.5-2.8,4.5-4.9,5.8-2.1,1.3-4.4,2-6.9,2s-4.8-.7-6.9-2ZM547.5,635.3c1.3-.9,2.3-2.3,3.1-4.1s1.1-4.1,1.1-6.7-.4-4.9-1.1-6.7c-.8-1.8-1.8-3.2-3.1-4.1-1.3-.9-2.7-1.4-4.2-1.4s-2.9.5-4.2,1.4-2.3,2.3-3.1,4.1c-.8,1.8-1.1,4.1-1.1,6.7s.4,4.9,1.1,6.7c.8,1.8,1.8,3.2,3.1,4.1,1.3.9,2.7,1.4,4.2,1.4s2.9-.5,4.2-1.4Z"/>
    <path class="st14" d="M565.6,640.9c0-2.6.5-4.9,1.5-6.8,1-1.9,2.2-3.5,3.5-4.7,1.4-1.2,3.2-2.5,5.3-4,1.5-1,2.7-1.9,3.6-2.6s1.5-1.4,2.1-2.3.8-1.8.8-2.9c0-1.6-.5-2.8-1.5-3.8-1-.9-2.5-1.4-4.3-1.4s-3,.4-4,1.3c-1.1.9-1.8,1.9-2.3,3.1l-4.2-1.9c.3-1.2,1-2.4,1.9-3.5s2.1-2.1,3.6-2.9c1.5-.8,3.2-1.1,5.2-1.1s4,.4,5.7,1.3c1.7.9,3,2.1,3.9,3.6.9,1.5,1.4,3.2,1.4,5.1s-.4,3.3-1.1,4.6c-.8,1.3-1.7,2.5-2.8,3.4s-2.6,2-4.5,3.3c-2,1.3-3.5,2.5-4.7,3.5-1.2,1-2.1,2.2-2.8,3.5h16v4.9h-22.1Z"/>
    <path class="st14" d="M614.7,620.8c1.7,1,3.1,2.3,4.1,4s1.5,3.5,1.5,5.5-.5,3.8-1.5,5.5-2.4,3-4.2,4c-1.8,1-3.8,1.5-6,1.5s-4.2-.5-6-1.5c-1.8-1-3.2-2.3-4.2-4s-1.5-3.5-1.5-5.5.2-2.6.7-3.9c.5-1.3,1-2.5,1.6-3.4l9.6-15h5.6l-7.6,11.5c.7-.2,1.4-.3,2.2-.3,2.1,0,4,.5,5.7,1.5ZM611.8,635.8c1-.6,1.8-1.3,2.4-2.3.6-1,.9-2,.9-3.2s-.3-2.2-.9-3.2c-.6-1-1.4-1.7-2.4-2.3s-2.1-.8-3.3-.8-2.3.3-3.3.8-1.8,1.3-2.4,2.3c-.6,1-.9,2-.9,3.2s.3,2.2.9,3.2c.6,1,1.4,1.7,2.4,2.3s2.1.8,3.3.8,2.3-.3,3.3-.8Z"/>
  </g>
</svg>